# Blender v3.0.1 OBJ File: ''
# www.blender.org
mtllib secrethouse.mtl
o secrethouse
v 0.000000 0.000000 0.000000
v 0.000000 20.000000 0.000000
v 0.000000 0.000000 -20.000000
v 0.000000 20.000000 -20.000000
v 20.000000 0.000000 0.000000
v 20.000000 20.000000 0.000000
v 20.000000 20.000000 -20.000000
v 20.000000 0.000000 -20.000000
v 17.500000 0.000000 -2.500000
v 2.500000 0.000000 -2.500000
v 2.500000 0.000000 -17.500000
v 17.500000 0.000000 -17.500000
v 17.500000 15.000000 -2.500000
v 2.500000 15.000000 -2.500000
v 17.500000 15.000000 -17.500000
v 2.500000 15.000000 -17.500000
vt 0.279533 0.279533
vt 0.004808 0.279533
vt 0.279533 0.004808
vt 0.004808 0.004808
vt 0.279533 0.554258
vt 0.004808 0.554258
vt 0.004808 0.563875
vt 0.279533 0.563875
vt 0.279533 0.838600
vt 0.004808 0.838600
vt 0.563875 0.279533
vt 0.563875 0.004808
vt 0.838600 0.004808
vt 0.838600 0.279533
vt 0.313873 0.519918
vt 0.313873 0.313873
vt 0.554258 0.279533
vt 0.519918 0.313873
vt 0.554258 0.554258
vt 0.519918 0.519918
vt 0.289148 0.838599
vt 0.289148 0.563874
vt 0.563874 0.563874
vt 0.563874 0.838599
vt 0.563875 0.495192
vt 0.563875 0.289148
vt 0.769918 0.289148
vt 0.769918 0.495192
vt 0.779533 0.563874
vt 0.779533 0.769917
vt 0.573490 0.563874
vt 0.573490 0.769917
vt 0.779533 0.779533
vt 0.779533 0.985577
vt 0.573489 0.779533
vt 0.573489 0.985577
vt 0.789148 0.769917
vt 0.789148 0.563874
vt 0.995192 0.563874
vt 0.995192 0.769918
vt 0.779533 0.289148
vt 0.985577 0.289148
vt 0.779533 0.495192
vt 0.985577 0.495192
vn -1.0000 0.0000 0.0000
vn 0.0000 0.0000 1.0000
vn 0.0000 1.0000 0.0000
vn 0.0000 0.0000 -1.0000
vn 0.0000 -1.0000 0.0000
vn 1.0000 0.0000 0.0000
usemtl Default_OBJ
s 1
f 1/1/1 2/2/1 3/3/1
f 3/3/1 2/2/1 4/4/1
f 5/5/2 6/6/2 1/1/2
f 1/1/2 6/6/2 2/2/2
f 7/7/3 4/8/3 2/9/3
f 7/7/3 2/9/3 6/10/3
f 7/11/4 8/12/4 3/13/4
f 7/11/4 3/13/4 4/14/4
f 1/1/5 9/15/5 5/5/5
f 10/16/5 9/15/5 1/1/5
f 3/17/5 11/18/5 1/1/5
f 1/1/5 11/18/5 10/16/5
f 11/18/5 8/19/5 12/20/5
f 12/20/5 8/19/5 9/15/5
f 9/15/5 8/19/5 5/5/5
f 3/17/5 8/19/5 11/18/5
f 6/21/6 5/22/6 8/23/6
f 6/21/6 8/23/6 7/24/6
f 13/25/4 9/26/4 10/27/4
f 13/25/4 10/27/4 14/28/4
f 9/29/1 13/30/1 12/31/1
f 12/31/1 13/30/1 15/32/1
f 12/33/2 15/34/2 11/35/2
f 11/35/2 15/34/2 16/36/2
f 14/37/6 10/38/6 11/39/6
f 14/37/6 11/39/6 16/40/6
f 16/41/5 15/42/5 14/43/5
f 14/43/5 15/42/5 13/44/5
