# Created by FreeCAD <https://www.freecad.org>
v 0.000000 0.000000 0.000000
v 0.000000 0.000000 20.000000
v 0.000000 20.000000 0.000000
v 0.000000 20.000000 20.000000
v 20.000000 0.000000 0.000000
v 20.000000 0.000000 20.000000
v 20.000000 20.000000 20.000000
v 20.000000 20.000000 0.000000
v 17.500000 2.500000 0.000000
v 2.500000 2.500000 0.000000
v 2.500000 17.500000 0.000000
v 17.500000 17.500000 0.000000
v 17.500000 2.500000 15.000000
v 2.500000 2.500000 15.000000
v 17.500000 17.500000 15.000000
v 2.500000 17.500000 15.000000
vn -1.000000 0.000000 0.000000
vn -1.000000 0.000000 0.000000
vn 0.000000 -1.000000 0.000000
vn 0.000000 -1.000000 0.000000
vn 0.000000 0.000000 1.000000
vn 0.000000 0.000000 1.000000
vn 0.000000 1.000000 0.000000
vn 0.000000 1.000000 0.000000
vn 0.000000 0.000000 -1.000000
vn 0.000000 -0.000000 -1.000000
vn 0.000000 0.000000 -1.000000
vn 0.000000 0.000000 -1.000000
vn 0.000000 0.000000 -1.000000
vn 0.000000 0.000000 -1.000000
vn 0.000000 0.000000 -1.000000
vn 0.000000 0.000000 -1.000000
vn 1.000000 0.000000 0.000000
vn 1.000000 -0.000000 0.000000
vn 0.000000 1.000000 0.000000
vn 0.000000 1.000000 0.000000
vn -1.000000 0.000000 0.000000
vn -1.000000 0.000000 0.000000
vn 0.000000 -1.000000 0.000000
vn 0.000000 -1.000000 0.000000
vn 1.000000 0.000000 0.000000
vn 1.000000 -0.000000 0.000000
vn 0.000000 0.000000 -1.000000
vn 0.000000 0.000000 -1.000000
f 1//1 2//1 3//1
f 3//2 2//2 4//2
f 5//3 6//3 1//3
f 1//4 6//4 2//4
f 7//5 4//5 2//5
f 7//6 2//6 6//6
f 7//7 8//7 3//7
f 7//8 3//8 4//8
f 1//9 9//9 5//9
f 10//10 9//10 1//10
f 3//11 11//11 1//11
f 1//12 11//12 10//12
f 11//13 8//13 12//13
f 12//14 8//14 9//14
f 9//15 8//15 5//15
f 3//16 8//16 11//16
f 6//17 5//17 8//17
f 6//18 8//18 7//18
f 13//19 9//19 10//19
f 13//20 10//20 14//20
f 9//21 13//21 12//21
f 12//22 13//22 15//22
f 12//23 15//23 11//23
f 11//24 15//24 16//24
f 14//25 10//25 11//25
f 14//26 11//26 16//26
f 16//27 15//27 14//27
f 14//28 15//28 13//28
